<svg width="1180" height="178" viewBox="0 0 1180 178" fill="none" xmlns="http://www.w3.org/2000/svg">
<g opacity="0.1" clip-path="url(#clip0_35_76)">
<path d="M310.873 61.6878C310.873 61.6878 417.137 43.1968 494.646 43.1968C611.687 43.1968 664.275 92.8142 664.275 92.8142L725.463 103.138C725.463 103.138 686.761 58.2464 603.604 24.7059C520.448 -8.8347 402.008 14.2276 357.606 24.7059C313.204 35.1841 275.849 54.0346 275.849 54.0346L310.821 61.6878H310.873Z" fill="url(#paint0_linear_35_76)"/>
<path d="M1180 192.563C1180 192.563 1156.43 172.839 1110.06 162.258C1074.67 154.143 1079.38 162.926 1053.01 141.353C1003.69 101.084 879.808 129.899 813.594 123.427C776.756 119.832 718.728 118.753 661.58 98.3617C661.58 98.3617 698.055 104.679 769.969 103.087C841.882 101.444 948.613 89.3731 1017.26 103.498C1085.91 117.623 1157 158.971 1179.95 192.563H1180Z" fill="url(#paint1_linear_35_76)"/>
<path d="M683.341 134.521C589.771 122.091 424.546 92.5573 441.488 119.215C449.933 132.518 379.626 100.93 326.934 88.0373C269.89 74.0663 209.634 65.6426 216.888 65.6426C230.825 65.6426 375.636 62.2013 583.657 103.446C667.383 120.037 752.975 143.716 683.393 134.47L683.341 134.521Z" fill="url(#paint2_linear_35_76)"/>
<path d="M320.717 137.963C355.793 137.963 386.776 155.221 405.583 181.622C391.542 148.955 358.798 125.944 320.717 125.944C282.636 125.944 249.943 148.903 235.851 181.622C254.606 155.221 285.641 137.963 320.717 137.963Z" fill="url(#paint3_radial_35_76)"/>
<path d="M982.134 144.075C1015.35 144.075 1044.88 159.536 1063.84 183.574C1049.23 153.372 1018.09 132.467 982.134 132.467C946.178 132.467 915.039 153.372 900.429 183.574C919.391 159.536 948.975 144.075 982.134 144.075Z" fill="url(#paint4_radial_35_76)"/>
<path d="M118.499 93.7388C118.499 93.7388 117.67 108.172 119.483 114.952C122.54 126.663 122.54 113.822 140.156 116.852C165.336 121.218 201.811 130.875 201.811 130.875C201.811 130.875 188.288 120.807 173.211 112.743C151.917 105.09 137.876 98.567 118.551 93.7388H118.499Z" fill="url(#paint5_radial_35_76)"/>
<path d="M1082.44 120.191C1035.29 97.5396 978.3 89.2701 896.646 89.6296C834.007 89.9378 745.41 93.3792 715.826 91.0678C715.826 91.0678 736.914 83.4146 749.245 77.7132C728.313 66.8755 703.236 51.7231 674.171 37.9576C610.599 7.90983 565.627 -0.719285 517.754 -0.000191864C469.88 0.770265 415.79 7.03665 325.432 31.6913C251.394 51.9286 221.033 56.3973 206.629 57.7841C181.76 60.1982 143.368 53.7263 122.54 45.9704C129.276 58.5032 151.399 67.8 191.034 76.7373C238.182 87.3183 272.947 93.9955 309.422 98.0019C309.422 98.0019 263.31 84.9042 233.778 76.3778C212.432 70.2141 312.324 72.4228 388.589 83.1064C464.855 93.7901 538.582 103.241 623.24 119.677C669.456 128.666 785.098 152.499 785.098 152.499C785.098 152.499 740.437 137.449 680.077 121.783C474.647 68.5191 303.982 58.4004 303.982 58.4004C303.982 58.4004 379.574 35.3895 426.256 27.0685C480.398 17.4121 550.809 13.4571 613.396 39.2417C652.255 55.2159 706.034 97.2828 706.034 97.2828C706.034 97.2828 615.676 88.9619 597.283 89.0646C605.832 90.7596 627.748 94.9715 653.187 99.9024C711.267 111.202 750.436 116.544 809.397 112.178C824.837 111.048 862.089 108.172 882.658 107.247C940.375 104.628 1024.31 102.008 1079.95 134.522C1079.95 134.522 1058.92 134.984 1068.61 138.066C1071.97 139.144 1088.29 143.664 1110.83 154.194C1162.07 178.078 1176.43 195.131 1176.43 195.131C1176.43 195.131 1147.77 151.574 1082.39 120.191H1082.44Z" fill="url(#paint6_radial_35_76)"/>
</g>
<defs>
<linearGradient id="paint0_linear_35_76" x1="275.849" y1="55.1132" x2="725.463" y2="55.1132" gradientUnits="userSpaceOnUse">
<stop stop-color="#37A2CE"/>
<stop offset="1" stop-color="#1F2D5C"/>
</linearGradient>
<linearGradient id="paint1_linear_35_76" x1="661.58" y1="144.641" x2="1180" y2="144.641" gradientUnits="userSpaceOnUse">
<stop stop-color="#37A2CE"/>
<stop offset="1" stop-color="#1F2D5C"/>
</linearGradient>
<linearGradient id="paint2_linear_35_76" x1="216.266" y1="101.135" x2="708.884" y2="101.135" gradientUnits="userSpaceOnUse">
<stop stop-color="#37A2CE"/>
<stop offset="1" stop-color="#1F2D5C"/>
</linearGradient>
<radialGradient id="paint3_radial_35_76" cx="0" cy="0" r="1" gradientUnits="userSpaceOnUse" gradientTransform="translate(320.717 153.834) scale(63.2093 62.6638)">
<stop stop-color="#4FA0D0"/>
<stop offset="1" stop-color="#093B77"/>
</radialGradient>
<radialGradient id="paint4_radial_35_76" cx="0" cy="0" r="1" gradientUnits="userSpaceOnUse" gradientTransform="translate(982.134 157.995) scale(60.5669 60.0443)">
<stop stop-color="#4FA0D0"/>
<stop offset="1" stop-color="#093B77"/>
</radialGradient>
<radialGradient id="paint5_radial_35_76" cx="0" cy="0" r="1" gradientUnits="userSpaceOnUse" gradientTransform="translate(160.051 112.332) scale(32.33 32.051)">
<stop stop-color="#4FA0D0"/>
<stop offset="1" stop-color="#093B77"/>
</radialGradient>
<radialGradient id="paint6_radial_35_76" cx="0" cy="0" r="1" gradientUnits="userSpaceOnUse" gradientTransform="translate(649.509 97.591) scale(379.048 375.778)">
<stop stop-color="#4FA0D0"/>
<stop offset="1" stop-color="#093B77"/>
</radialGradient>
<clipPath id="clip0_35_76">
<rect width="1751" height="435" fill="white" transform="translate(-571)"/>
</clipPath>
</defs>
</svg>
