<svg width="30" height="25" viewBox="0 0 30 25" fill="none" xmlns="http://www.w3.org/2000/svg">
<path d="M15 1.34666C9.12414 1.34666 4.34483 6.41245 4.34483 12.6405C4.34483 18.8686 9.12414 23.9344 15 23.9344C20.8759 23.9344 25.6552 18.8686 25.6552 12.6405C25.6552 6.41245 20.8759 1.34666 15 1.34666ZM15 21.3028C10.4938 21.3028 6.82759 17.4168 6.82759 12.6405C6.82759 7.8642 10.4938 3.97823 15 3.97823C19.5062 3.97823 23.1724 7.8642 23.1724 12.6405C23.1724 17.4168 19.5062 21.3028 15 21.3028ZM30 12.6405C30 17.2633 28.1007 21.6537 24.7903 24.68C24.5545 24.8949 24.269 25.0002 23.9793 25.0002C23.6317 25.0002 23.2841 24.8467 23.04 24.544C22.5931 23.9958 22.651 23.1624 23.1683 22.6888C25.9324 20.1624 27.5172 16.5002 27.5172 12.6405C27.5172 8.78087 25.829 4.87297 22.8828 2.33788C22.349 1.87736 22.2703 1.0528 22.7007 0.487007C23.131 -0.0743967 23.9131 -0.162116 24.4469 0.294024C27.9766 3.3335 30 7.8335 30 12.6405ZM6.83172 22.6888C7.34897 23.1624 7.4069 23.9958 6.96 24.544C6.71586 24.8467 6.36828 25.0002 6.02069 25.0002C5.73517 25.0002 5.44552 24.8949 5.20966 24.68C1.89931 21.6537 0 17.2633 0 12.6405C0 8.01771 2.02345 3.32911 5.5531 0.294024C6.0869 -0.162116 6.86897 -0.0787827 7.29931 0.487007C7.72966 1.0528 7.65103 1.88174 7.11724 2.33788C4.17103 4.87297 2.48276 8.62736 2.48276 12.6405C2.48276 16.5002 4.06759 20.1624 6.83172 22.6888ZM11.3338 8.94315C11.2841 8.71508 11.0855 8.56157 10.8579 8.56157C10.6303 8.56157 10.4359 8.71508 10.3862 8.94753L8.73931 15.2809C8.66897 15.566 8.82207 15.8554 9.07862 15.9344C9.34759 16.0089 9.61241 15.8642 9.6869 15.5923C9.6869 15.5923 9.81103 14.9168 9.98483 14.4782H11.7352C11.909 14.9168 12.0331 15.5923 12.0331 15.5923C12.1034 15.8642 12.3724 15.9958 12.6414 15.9168C12.8979 15.8423 13.051 15.5572 12.9807 15.2721L11.3338 8.94315ZM10.2621 13.1581C10.4566 12.7195 10.6759 11.566 10.8579 10.8554C11.0441 11.566 11.2593 12.7195 11.4538 13.1581H10.2579H10.2621ZM15.3476 8.77209H14.1103C13.8331 8.77209 13.7586 8.84227 13.7586 9.12736V15.3686C13.7586 15.6624 13.8331 15.7896 14.1103 15.7896H15.3476C16.2952 15.7896 17.069 15.0747 17.069 14.0572V13.4475C17.069 12.9344 16.8621 12.4738 16.5434 12.1361C16.8621 11.8072 17.069 11.3379 17.069 10.8247V10.43C17.069 9.41683 16.291 8.76771 15.3476 8.76771V8.77209ZM16.2414 14.0572C16.2414 14.4914 15.7572 14.9124 15.3476 14.9124H14.5862V12.7195H15.3476C15.7572 12.7195 16.2414 13.0089 16.2414 13.4475V14.0572ZM16.2414 10.8247C16.2414 11.2589 15.7572 11.3993 15.3476 11.3993H14.5862V9.6449H15.3476C15.7572 9.6449 16.2414 9.99578 16.2414 10.43V10.8247ZM21.1614 14.1844C21.12 14.7282 20.8634 15.2238 20.4621 15.5484C20.0524 15.873 19.5352 15.9958 19.0303 15.8993C18.5255 15.7896 18.0952 15.4519 17.8469 14.9958C17.7021 14.7458 17.7848 14.4168 18.0207 14.2765C18.2566 14.1361 18.5545 14.2238 18.6993 14.4738C18.811 14.68 18.9972 14.8247 19.2248 14.8774C19.4524 14.9212 19.68 14.8642 19.8621 14.7151C20.0483 14.5747 20.1517 14.3554 20.1724 14.1142C20.1931 13.873 20.1103 13.6317 19.9572 13.4607L18.3103 11.6712C17.9586 11.3028 17.7848 10.7765 17.8262 10.2545C17.8676 9.73262 18.1117 9.25016 18.5048 8.93438C18.8938 8.61859 19.411 8.50016 19.8952 8.59666C20.3793 8.70631 20.8014 9.02209 21.0497 9.48262C21.1821 9.73262 21.1034 10.0484 20.8634 10.2019C20.6276 10.3423 20.3297 10.2545 20.1931 10.0045C20.0772 9.80718 19.9035 9.6756 19.7007 9.62297C19.4855 9.57911 19.2786 9.63174 19.1048 9.77648C18.931 9.90806 18.8276 10.1142 18.8152 10.3423C18.7945 10.5616 18.8648 10.7765 19.0221 10.9431L20.6566 12.7326C21.0166 13.123 21.2028 13.6581 21.1614 14.1931V14.1844Z" fill="#0D407C"/>
</svg>
