<svg width="30" height="30" viewBox="0 0 30 30" fill="none" xmlns="http://www.w3.org/2000/svg">
<path fill-rule="evenodd" clip-rule="evenodd" d="M17.5595 9.44415C18.7762 5.78889 17.0491 1.75745 13.6929 0.426739C10.3418 -0.898359 6.63494 0.982607 5.41308 4.63786C4.19638 8.29311 5.92348 12.3245 9.27973 13.6553C12.636 14.986 16.3376 13.0994 17.5595 9.44415ZM18.9412 5.3734C18.9412 3.7844 20.0857 2.53791 21.5447 2.53791C23.0037 2.53791 24.1483 3.7844 24.1483 5.3734C24.1483 6.96239 23.0037 8.20888 21.5447 8.20888C20.0857 8.20888 18.9412 6.96239 18.9412 5.3734ZM29.8812 6.16509C29.675 5.71029 29.2574 5.59799 28.9429 5.82258L24.0452 9.00057C23.7307 9.22517 23.6276 9.67997 23.8389 10.0225L23.942 10.1348C24.1483 10.4773 24.5659 10.5896 24.8803 10.3594L29.7781 7.18137C29.9843 6.95678 30.0926 6.50198 29.8812 6.15947V6.16509ZM14.0434 15.8114C14.3579 15.5868 14.7704 15.6991 14.9817 16.0359L23.2151 28.6356C23.4213 28.9781 23.3182 29.4273 23.0089 29.6575L22.6944 29.8821C22.3799 30.1067 21.9675 29.9944 21.7561 29.6575L13.5227 17.0578C13.3165 16.7153 13.4196 16.2662 13.7289 16.0359L14.0434 15.8114ZM19.7764 21.7125L22.5913 15.132C22.6944 14.9074 22.6944 14.6772 22.6944 14.4526L22.7975 9.23078H20.7147C20.2971 9.23078 19.8795 9.45537 19.5702 9.79788L15.6107 15.4745L19.7764 21.7181V21.7125ZM7.37734 15.9237L11.4399 16.4907C12.1668 16.603 12.7958 17.0578 13.2134 17.7372L16.2345 22.8467L8.52186 20.1235L3.62412 28.2931C2.89719 29.315 1.2268 30.1067 0.391602 29.2027C-0.232217 28.6356 -0.0259956 27.0466 0.391602 26.2493L5.91317 16.7153C6.22766 16.1482 6.74836 15.8057 7.37218 15.9237H7.37734Z" fill="#0D407C"/>
</svg>
