<svg width="29" height="29" viewBox="0 0 29 29" fill="none" xmlns="http://www.w3.org/2000/svg">
<path d="M23.6141 4.4407L4.17924 0.0625577C2.78365 -0.250167 1.33637 0.635886 1.02624 2.09527C0.71611 3.55465 1.59481 4.96191 3.04209 5.27464L9.70991 6.78614L12.5528 25.0284C12.6562 25.8102 13.4315 26.3835 14.2068 26.2272L23.1489 24.8199L23.7692 28.729C23.8209 28.8853 23.9759 29.0417 24.131 28.9896L28.7313 28.2599C28.8863 28.2078 29.0414 28.0514 28.9897 27.8951L25.6817 6.62978C25.4749 5.53524 24.6479 4.70131 23.6141 4.4407ZM22.0635 21.9012L15.8092 22.8915C15.499 22.9436 15.2406 22.7351 15.1889 22.4745L13.0697 8.76673L16.2743 8.24552L20.0993 9.13157L22.0635 21.9012Z" fill="#0D407C"/>
</svg>
