<svg width="16" height="29" viewBox="0 0 16 29" fill="none" xmlns="http://www.w3.org/2000/svg">
<path fill-rule="evenodd" clip-rule="evenodd" d="M13.6 5.10638H11.2V1.59574C11.2 0.714894 10.4832 0 9.6 0H6.4C5.5168 0 4.8 0.714894 4.8 1.59574V5.10638H2.4C1.0752 5.10638 0 6.17872 0 7.5V25.6915C0 27.0128 1.0752 28.0851 2.4 28.0851H13.6C14.9248 28.0851 16 27.0128 16 25.6915V7.5C16 6.17872 14.9248 5.10638 13.6 5.10638ZM13.44 8.29787V24.8936H12.48V8.29787H13.44ZM10.96 8.29787V24.8936H10V8.29787H10.96ZM8.48 8.29787V24.8936H7.52V8.29787H8.48ZM6 8.29787V24.8936H5.04V8.29787H6ZM3.52 8.29787V24.8936H2.56V8.29787H3.52ZM5.76 1.59574C5.76 1.24468 6.048 0.957447 6.4 0.957447H9.6C9.952 0.957447 10.24 1.24468 10.24 1.59574V5.10638H5.76V1.59574Z" fill="#0D407C"/>
</svg>
