<svg width="26" height="30" viewBox="0 0 26 30" fill="none" xmlns="http://www.w3.org/2000/svg">
<path d="M24.8494 27.1505V27.1447L17.6942 27.785L17.561 27.0072L24.7687 26.3621L24.6257 24.9588C24.5898 24.6045 24.159 24.3358 23.6688 24.3622L23.3874 24.3773L16.4132 25.2992L16.218 24.5286L23.2187 23.6029L22.9194 22.2255C22.8434 21.8746 22.3831 21.6323 21.8976 21.6874L21.6059 21.7203L14.8 22.8058L14.5664 22.0404L20.3996 21.1101L20.0038 19.9077C19.9112 19.626 19.5166 19.4504 19.1272 19.5175L4.22149 22.0822C3.83207 22.1493 3.58868 22.4347 3.68176 22.716L4.01141 23.7167L3.31881 23.7955C2.83332 23.8505 2.49812 24.1829 2.57456 24.5338L2.77909 25.4748L2.16165 25.5078C1.67145 25.5339 1.29996 25.8451 1.33583 26.1997L1.43276 27.1502H1.07707C0.585591 27.1502 0.183358 27.4409 0.183358 27.7964V29.9998H25.9997V27.7967C25.9997 27.4415 25.5971 27.1505 25.106 27.1505H24.849H24.8494ZM12.6108 17.2144L11.4399 17.41L9.04146 9.91346L10.2123 9.71757C10.8596 9.60932 11.264 9.14957 11.1167 8.6889L10.5778 7.00458C11.7491 6.00758 12.2939 4.65816 11.8597 3.29952C11.1235 0.999538 7.90692 -0.426456 4.67283 0.114174C1.44044 0.654803 -0.584814 2.95724 0.151333 5.25784C0.585591 6.61556 1.8952 7.655 3.55281 8.17902L4.09168 9.86395C4.239 10.3246 4.88163 10.6094 5.52896 10.5011L6.6998 10.3052L9.09783 17.8018L7.92699 17.9977C6.63447 18.2139 5.82402 19.1355 6.11822 20.055L6.38467 20.8881L15.7513 19.3219L15.4849 18.4888C15.1907 17.5693 13.9041 16.9982 12.6103 17.2144H12.6108ZM5.0725 1.36365C7.33218 0.9857 9.58888 1.98608 10.103 3.59382C10.1764 3.82385 9.97531 4.05388 9.65079 4.10831C9.32883 4.16213 9.00559 4.01974 8.93215 3.78971C8.5645 2.64111 6.95343 1.92673 5.33895 2.19673C5.01699 2.25055 4.69375 2.10817 4.62031 1.87814C4.54687 1.64811 4.74926 1.41777 5.0725 1.36365Z" fill="#0D407C"/>
</svg>
